<svg xmlns="http://www.w3.org/2000/svg" viewBox="0 0 489.104 489.104" width="512" height="512"><g fill="#FFF"><path d="M359.952 108.102h-87.2v83.3h-54.1v-83.3h-89.5c-11.6 0-21 9.4-21 21v230.8c0 11.6 9.4 21 21 21h230.8c11.6 0 21-9.4 21-21v-230.7c.1-11.6-9.4-21.1-21-21.1z"/><path d="M242.352 448.402l-56.4-32.6c-2.9-1.7-6.6.4-6.6 3.8v17.8h-83.5c-22.6 0-40.9-18.3-40.9-40.9v-151.9h-29.6v151.9c0 38.9 31.5 70.4 70.4 70.4h83.5v17.8c0 3.4 3.7 5.5 6.6 3.8l56.4-32.6c3-1.6 3-5.8.1-7.5zM393.352 22.302h-83.5v-17.9c0-3.4-3.7-5.5-6.6-3.8l-56.4 32.6c-2.9 1.7-2.9 5.9 0 7.6l56.4 32.6c2.9 1.7 6.6-.4 6.6-3.8v-17.9h83.5c22.6 0 40.9 18.4 40.9 40.9v152h29.5v-151.9c0-38.9-31.6-70.4-70.4-70.4z"/></g></svg>